<?xml version="1.0" encoding="UTF-8" standalone="no"?>
<!DOCTYPE svg PUBLIC "-//W3C//DTD SVG 1.1//EN"
 "http://www.w3.org/Graphics/SVG/1.1/DTD/svg11.dtd">
<!-- Generated by graphviz version 2.40.1 (20161225.0304)
 -->
<!-- Title: state transitions Pages: 1 -->
<svg width="254pt" height="598pt"
 viewBox="0.00 0.00 254.00 598.00" xmlns="http://www.w3.org/2000/svg" xmlns:xlink="http://www.w3.org/1999/xlink">
<g id="graph0" class="graph" transform="scale(1 1) rotate(0) translate(4 594)">
<title>state transitions</title>
<polygon fill="#ffffff" stroke="transparent" points="-4,4 -4,-594 250,-594 250,4 -4,4"/>
<g id="clust1" class="cluster state regular">
<title>cluster_state</title>
<path fill="none" stroke="#000000" stroke-width="2" d="M20,-8C20,-8 226,-8 226,-8 232,-8 238,-14 238,-20 238,-20 238,-570 238,-570 238,-576 232,-582 226,-582 226,-582 20,-582 20,-582 14,-582 8,-576 8,-570 8,-570 8,-20 8,-20 8,-14 14,-8 20,-8"/>
<text text-anchor="start" x="109.9944" y="-563.2" font-family="Helvetica,sans-Serif" font-size="12.00" fill="#000000">state</text>
</g>
<!-- state -->
<!-- ST_INIT -->
<g id="node2" class="node state regular">
<title>ST_INIT</title>
<polygon fill="#ffffff" fill-opacity="0.003922" stroke="transparent" stroke-width="2" points="136,-544 70,-544 70,-508 136,-508 136,-544"/>
<text text-anchor="start" x="80.6662" y="-522.2" font-family="Helvetica,sans-Serif" font-size="12.00" fill="#000000">ST_INIT</text>
<path fill="none" stroke="#000000" stroke-width="2" d="M82.3333,-509C82.3333,-509 123.6667,-509 123.6667,-509 129.3333,-509 135,-514.6667 135,-520.3333 135,-520.3333 135,-531.6667 135,-531.6667 135,-537.3333 129.3333,-543 123.6667,-543 123.6667,-543 82.3333,-543 82.3333,-543 76.6667,-543 71,-537.3333 71,-531.6667 71,-531.6667 71,-520.3333 71,-520.3333 71,-514.6667 76.6667,-509 82.3333,-509"/>
</g>
<!-- ST_INIT_FIRST -->
<g id="node3" class="node state regular">
<title>ST_INIT_FIRST</title>
<polygon fill="#ffffff" fill-opacity="0.003922" stroke="transparent" stroke-width="2" points="148,-462 40,-462 40,-426 148,-426 148,-462"/>
<text text-anchor="start" x="50.9998" y="-440.2" font-family="Helvetica,sans-Serif" font-size="12.00" fill="#000000">ST_INIT_FIRST</text>
<path fill="none" stroke="#000000" stroke-width="2" d="M52.3333,-427C52.3333,-427 135.6667,-427 135.6667,-427 141.3333,-427 147,-432.6667 147,-438.3333 147,-438.3333 147,-449.6667 147,-449.6667 147,-455.3333 141.3333,-461 135.6667,-461 135.6667,-461 52.3333,-461 52.3333,-461 46.6667,-461 41,-455.3333 41,-449.6667 41,-449.6667 41,-438.3333 41,-438.3333 41,-432.6667 46.6667,-427 52.3333,-427"/>
</g>
<!-- ST_INIT&#45;&gt;ST_INIT_FIRST -->
<g id="edge1" class="edge transition">
<title>ST_INIT&#45;&gt;ST_INIT_FIRST</title>
<path fill="none" stroke="#000000" d="M101.0026,-507.8015C99.8607,-497.3976 98.4036,-484.1215 97.1145,-472.3768"/>
<polygon fill="#000000" stroke="#000000" points="100.562,-471.706 95.9918,-462.1476 93.6038,-472.4698 100.562,-471.706"/>
<text text-anchor="start" x="99" y="-482" font-family="Helvetica,sans-Serif" font-size="10.00" fill="#000000">temp_ctr = 4 &#160;&#160;</text>
</g>
<!-- ST_INIT_SECOND -->
<g id="node4" class="node state regular">
<title>ST_INIT_SECOND</title>
<polygon fill="#ffffff" fill-opacity="0.003922" stroke="transparent" stroke-width="2" points="145,-380 21,-380 21,-344 145,-344 145,-380"/>
<text text-anchor="start" x="31.6664" y="-358.2" font-family="Helvetica,sans-Serif" font-size="12.00" fill="#000000">ST_INIT_SECOND</text>
<path fill="none" stroke="#000000" stroke-width="2" d="M33.3333,-345C33.3333,-345 132.6667,-345 132.6667,-345 138.3333,-345 144,-350.6667 144,-356.3333 144,-356.3333 144,-367.6667 144,-367.6667 144,-373.3333 138.3333,-379 132.6667,-379 132.6667,-379 33.3333,-379 33.3333,-379 27.6667,-379 22,-373.3333 22,-367.6667 22,-367.6667 22,-356.3333 22,-356.3333 22,-350.6667 27.6667,-345 33.3333,-345"/>
</g>
<!-- ST_INIT_FIRST&#45;&gt;ST_INIT_SECOND -->
<g id="edge2" class="edge transition">
<title>ST_INIT_FIRST&#45;&gt;ST_INIT_SECOND</title>
<path fill="none" stroke="#000000" d="M91.5587,-425.8015C90.1631,-415.3976 88.3822,-402.1215 86.8066,-390.3768"/>
<polygon fill="#000000" stroke="#000000" points="90.233,-389.5934 85.4344,-380.1476 83.2951,-390.5242 90.233,-389.5934"/>
<text text-anchor="middle" x="90.3895" y="-400" font-family="Helvetica,sans-Serif" font-size="10.00" fill="#000000"> </text>
</g>
<!-- ST_ASSOC_DATA -->
<g id="node5" class="node state regular">
<title>ST_ASSOC_DATA</title>
<polygon fill="#ffffff" fill-opacity="0.003922" stroke="transparent" stroke-width="2" points="140,-298 16,-298 16,-262 140,-262 140,-298"/>
<text text-anchor="start" x="26.6598" y="-276.2" font-family="Helvetica,sans-Serif" font-size="12.00" fill="#000000">ST_ASSOC_DATA</text>
<path fill="none" stroke="#000000" stroke-width="2" d="M28.3333,-263C28.3333,-263 127.6667,-263 127.6667,-263 133.3333,-263 139,-268.6667 139,-274.3333 139,-274.3333 139,-285.6667 139,-285.6667 139,-291.3333 133.3333,-297 127.6667,-297 127.6667,-297 28.3333,-297 28.3333,-297 22.6667,-297 17,-291.3333 17,-285.6667 17,-285.6667 17,-274.3333 17,-274.3333 17,-268.6667 22.6667,-263 28.3333,-263"/>
</g>
<!-- ST_INIT_SECOND&#45;&gt;ST_ASSOC_DATA -->
<g id="edge3" class="edge transition">
<title>ST_INIT_SECOND&#45;&gt;ST_ASSOC_DATA</title>
<path fill="none" stroke="#000000" d="M81.2532,-343.8464C80.7752,-338.4305 80.2924,-332.4783 79.94,-327 79.56,-321.0914 79.2396,-314.7598 78.9756,-308.7188"/>
<polygon fill="#000000" stroke="#000000" points="82.4564,-308.1654 78.5605,-298.3129 75.4619,-308.4445 82.4564,-308.1654"/>
<text text-anchor="start" x="79" y="-318" font-family="Helvetica,sans-Serif" font-size="10.00" fill="#000000">s01_axis_tvalid = &#39;1&#39; &#160;&#160;</text>
</g>
<!-- ST_ENCRYPT -->
<g id="node6" class="node state regular">
<title>ST_ENCRYPT</title>
<polygon fill="#ffffff" fill-opacity="0.003922" stroke="transparent" stroke-width="2" points="118.5,-216 17.5,-216 17.5,-180 118.5,-180 118.5,-216"/>
<text text-anchor="start" x="28.834" y="-194.2" font-family="Helvetica,sans-Serif" font-size="12.00" fill="#000000">ST_ENCRYPT</text>
<path fill="none" stroke="#000000" stroke-width="2" d="M29.8333,-181C29.8333,-181 106.1667,-181 106.1667,-181 111.8333,-181 117.5,-186.6667 117.5,-192.3333 117.5,-192.3333 117.5,-203.6667 117.5,-203.6667 117.5,-209.3333 111.8333,-215 106.1667,-215 106.1667,-215 29.8333,-215 29.8333,-215 24.1667,-215 18.5,-209.3333 18.5,-203.6667 18.5,-203.6667 18.5,-192.3333 18.5,-192.3333 18.5,-186.6667 24.1667,-181 29.8333,-181"/>
</g>
<!-- ST_ASSOC_DATA&#45;&gt;ST_ENCRYPT -->
<g id="edge4" class="edge transition">
<title>ST_ASSOC_DATA&#45;&gt;ST_ENCRYPT</title>
<path fill="none" stroke="#000000" d="M75.7807,-261.8015C74.5119,-251.3976 72.8929,-238.1215 71.4606,-226.3768"/>
<polygon fill="#000000" stroke="#000000" points="74.898,-225.6503 70.2131,-216.1476 67.9495,-226.4978 74.898,-225.6503"/>
<text text-anchor="start" x="73" y="-236" font-family="Helvetica,sans-Serif" font-size="10.00" fill="#000000">s01_axis_tlast = &#39;1&#39; &#160;&#160;</text>
</g>
<!-- ST_FINAL_FIRST -->
<g id="node7" class="node state regular">
<title>ST_FINAL_FIRST</title>
<polygon fill="#ffffff" fill-opacity="0.003922" stroke="transparent" stroke-width="2" points="148.5,-134 29.5,-134 29.5,-98 148.5,-98 148.5,-134"/>
<text text-anchor="start" x="40.8304" y="-112.2" font-family="Helvetica,sans-Serif" font-size="12.00" fill="#000000">ST_FINAL_FIRST</text>
<path fill="none" stroke="#000000" stroke-width="2" d="M41.8333,-99C41.8333,-99 136.1667,-99 136.1667,-99 141.8333,-99 147.5,-104.6667 147.5,-110.3333 147.5,-110.3333 147.5,-121.6667 147.5,-121.6667 147.5,-127.3333 141.8333,-133 136.1667,-133 136.1667,-133 41.8333,-133 41.8333,-133 36.1667,-133 30.5,-127.3333 30.5,-121.6667 30.5,-121.6667 30.5,-110.3333 30.5,-110.3333 30.5,-104.6667 36.1667,-99 41.8333,-99"/>
</g>
<!-- ST_ENCRYPT&#45;&gt;ST_FINAL_FIRST -->
<g id="edge5" class="edge transition">
<title>ST_ENCRYPT&#45;&gt;ST_FINAL_FIRST</title>
<path fill="none" stroke="#000000" d="M72.6606,-179.8015C75.3522,-169.2915 78.7944,-155.8503 81.8247,-144.0177"/>
<polygon fill="#000000" stroke="#000000" points="85.262,-144.7033 84.3524,-134.1476 78.4809,-142.9666 85.262,-144.7033"/>
<text text-anchor="start" x="79" y="-154" font-family="Helvetica,sans-Serif" font-size="10.00" fill="#000000">s01_axis_tlast = &#39;1&#39; &#160;&#160;</text>
</g>
<!-- ST_FINAL_SECOND -->
<g id="node8" class="node state regular">
<title>ST_FINAL_SECOND</title>
<polygon fill="#ffffff" fill-opacity="0.003922" stroke="transparent" stroke-width="2" points="194,-52 58,-52 58,-16 194,-16 194,-52"/>
<text text-anchor="start" x="68.997" y="-30.2" font-family="Helvetica,sans-Serif" font-size="12.00" fill="#000000">ST_FINAL_SECOND</text>
<path fill="none" stroke="#000000" stroke-width="2" d="M70.3333,-17C70.3333,-17 181.6667,-17 181.6667,-17 187.3333,-17 193,-22.6667 193,-28.3333 193,-28.3333 193,-39.6667 193,-39.6667 193,-45.3333 187.3333,-51 181.6667,-51 181.6667,-51 70.3333,-51 70.3333,-51 64.6667,-51 59,-45.3333 59,-39.6667 59,-39.6667 59,-28.3333 59,-28.3333 59,-22.6667 64.6667,-17 70.3333,-17"/>
</g>
<!-- ST_FINAL_FIRST&#45;&gt;ST_FINAL_SECOND -->
<g id="edge6" class="edge transition">
<title>ST_FINAL_FIRST&#45;&gt;ST_FINAL_SECOND</title>
<path fill="none" stroke="#000000" d="M97.2115,-97.8015C102.0497,-87.0791 108.2644,-73.306 113.6805,-61.3026"/>
<polygon fill="#000000" stroke="#000000" points="116.8888,-62.7022 117.8115,-52.1476 110.5082,-59.8231 116.8888,-62.7022"/>
<text text-anchor="middle" x="110.3895" y="-72" font-family="Helvetica,sans-Serif" font-size="10.00" fill="#000000"> </text>
</g>
<!-- ST_FINAL_SECOND&#45;&gt;ST_INIT -->
<g id="edge7" class="edge transition">
<title>ST_FINAL_SECOND&#45;&gt;ST_INIT</title>
<path fill="none" stroke="#000000" d="M171.4149,-52.177C178.7528,-58.0125 184,-65.5049 184,-75 184,-485 184,-485 184,-485 184,-504.2812 165.5037,-514.4973 146.1883,-519.9092"/>
<polygon fill="#000000" stroke="#000000" points="145.3171,-516.5189 136.4134,-522.2613 146.9548,-523.3246 145.3171,-516.5189"/>
<text text-anchor="start" x="184" y="-277" font-family="Helvetica,sans-Serif" font-size="10.00" fill="#000000">flag = &#39;1&#39; &#160;&#160;</text>
</g>
</g>
</svg>
